<svg width="24" height="24" viewBox="0 0 24 24" fill="none" xmlns="http://www.w3.org/2000/svg">
<path d="M4.41805 17.61L4.41606 17.6094C3.91219 17.4737 3.51597 17.0861 3.36816 16.5875C3.1031 15.0754 2.97518 13.5422 2.98595 12.007L2.98601 12.007L2.98596 11.9955C2.97904 10.4582 3.11037 8.92346 3.37833 7.40976C3.5314 6.90648 3.92777 6.51305 4.43376 6.36441C4.71627 6.29214 5.28646 6.22222 6.06699 6.16618C6.83029 6.11138 7.71909 6.07439 8.57761 6.04958C10.2932 6.00001 11.8538 6 11.979 6H12H12L12.0055 6.00001L12.021 6.00004L12.0774 6.00023C12.126 6.00042 12.1959 6.00075 12.2845 6.00132C12.4619 6.00247 12.714 6.00458 13.0197 6.00844C13.6316 6.01615 14.4565 6.03082 15.3263 6.05861C16.1977 6.08646 17.1059 6.12724 17.887 6.18655C18.6967 6.24803 19.2845 6.32403 19.5664 6.40136L19.5691 6.40211C20.0731 6.53885 20.4693 6.9267 20.6176 7.42551C20.8907 8.94096 21.0188 10.479 21 12.0188L20.9999 12.0271L21 12.0353C21.0066 13.5712 20.8749 15.1044 20.6064 16.6166C20.4567 17.1149 20.0602 17.5021 19.5563 17.639C19.2779 17.7124 18.705 17.7839 17.9169 17.8413C17.1539 17.8968 16.2653 17.9346 15.4068 17.9601C13.6912 18.011 12.1304 18.012 12.006 18.012H11.986L11.9805 18.012L11.9651 18.012L11.9089 18.0118C11.8605 18.0116 11.7908 18.0112 11.7024 18.0107C11.5256 18.0095 11.2741 18.0074 10.9691 18.0036C10.3586 17.9959 9.53527 17.9812 8.66658 17.9534C7.79627 17.9255 6.88849 17.8848 6.10658 17.8254C5.29697 17.764 4.70545 17.688 4.41805 17.61ZM10.5052 8.13852L9.00741 7.27558L9.00597 9.00417L9.00097 15.0042L8.99953 16.7352L10.4998 15.8717L15.7118 12.8717L17.2168 12.0054L15.7122 11.1385L10.5052 8.13852Z" fill="white" stroke="black" stroke-width="2"/>
</svg>
